Coordinates
version=1
nRows=27
nColumns=38
inDegrees=no

Units are S.I. units (second, meters, Newtons, ...)
If the header above contains a line with 'inDegrees', this indicates whether rotational values are in degrees (yes) or radians (no).

endheader
time	pelvis_tilt	pelvis_list	pelvis_rotation	pelvis_tx	pelvis_ty	pelvis_tz	hip_flexion_r	hip_adduction_r	hip_rotation_r	knee_angle_r	ankle_angle_r	subtalar_angle_r	mtp_angle_r	hip_flexion_l	hip_adduction_l	hip_rotation_l	knee_angle_l	ankle_angle_l	subtalar_angle_l	mtp_angle_l	lumbar_extension	lumbar_bending	lumbar_rotation	arm_flex_r	arm_add_r	arm_rot_r	elbow_flex_r	pro_sup_r	wrist_flex_r	wrist_dev_r	arm_flex_l	arm_add_l	arm_rot_l	elbow_flex_l	pro_sup_l	wrist_flex_l	wrist_dev_l
1.65	-0.222059	1.5134	-1.29605	0.747619	0.421205	0.917884	0.151549	0.0560786	-0.0836089	0.203442	0.0636612	0	0	0.180253	-0.181233	-0.206873	1.288	-0.244288	0	0	-0.179036	-0.00916996	-0.15165	-0.104077	-0.247446	0.328108	0.540451	0.848537	0	0	-0.112531	-0.368479	0.4348	0.719126	1.30276	0	0
1.66	-0.109284	1.51363	-1.41527	0.746801	0.412013	0.919558	0.137948	0.0516496	-0.0747894	0.200858	0.070267	0	0	0.208461	-0.176199	-0.202289	1.31776	-0.195605	0	0	-0.180778	-0.0166383	-0.146185	-0.10143	-0.248858	0.334082	0.542632	0.847709	0	0	-0.112819	-0.368297	0.431307	0.719885	1.30654	0	0
1.67	0.00982994	1.51416	-1.54058	0.746058	0.402942	0.921134	0.125342	0.0463715	-0.0669303	0.197484	0.0760616	0	0	0.236787	-0.170306	-0.198976	1.33989	-0.160408	0	0	-0.181318	-0.0245086	-0.141056	-0.0984448	-0.250639	0.342208	0.544012	0.846318	0	0	-0.112835	-0.368001	0.428096	0.720548	1.30819	0	0
1.68	0.132892	1.51411	-1.66986	0.745333	0.393893	0.92265	0.112665	0.0407958	-0.0604805	0.193039	0.0810769	0	0	0.263827	-0.164086	-0.197523	1.35445	-0.136635	0	0	-0.181451	-0.0325416	-0.135637	-0.0955369	-0.25235	0.351479	0.544257	0.843512	0	0	-0.112353	-0.367554	0.425165	0.721004	1.30846	0	0
1.69	0.250825	1.51334	-1.79468	0.744599	0.384861	0.924077	0.0997739	0.0353059	-0.0535863	0.18773	0.0861148	0	0	0.289064	-0.158217	-0.198185	1.36268	-0.11787	0	0	-0.181323	-0.0403159	-0.129212	-0.0930565	-0.253939	0.36026	0.543817	0.83984	0	0	-0.111289	-0.366846	0.422628	0.721327	1.30751	0	0
1.7	0.361209	1.51193	-1.91136	0.743994	0.375911	0.925386	0.0861415	0.0297381	-0.0471837	0.180889	0.0910563	0	0	0.312949	-0.151977	-0.199021	1.36547	-0.0990715	0	0	-0.181214	-0.0475911	-0.123418	-0.0907133	-0.255557	0.368369	0.543649	0.834325	0	0	-0.110017	-0.366286	0.420383	0.722297	1.30529	0	0
1.71	0.467082	1.51028	-2.02251	0.743551	0.367061	0.92656	0.072284	0.0239146	-0.0411445	0.172978	0.0955107	0	0	0.336127	-0.14511	-0.199594	1.36319	-0.0777526	0	0	-0.180758	-0.0545532	-0.118208	-0.0891767	-0.256965	0.375123	0.544058	0.82779	0	0	-0.10815	-0.365692	0.418507	0.723534	1.30177	0	0
1.72	0.561523	1.50823	-2.1225	0.743143	0.358348	0.927649	0.0591091	0.0183129	-0.0347713	0.165806	0.0996084	0	0	0.357977	-0.138359	-0.201003	1.35597	-0.0558078	0	0	-0.180639	-0.0609957	-0.112484	-0.0883447	-0.258214	0.380265	0.54551	0.820607	0	0	-0.10575	-0.365114	0.416655	0.725374	1.29701	0	0
1.73	0.644405	1.50518	-2.21304	0.742614	0.349748	0.928672	0.0464623	0.0126066	-0.0268844	0.159219	0.103855	0	0	0.376989	-0.132427	-0.20593	1.34358	-0.0356722	0	0	-0.181366	-0.0675743	-0.104829	-0.0879488	-0.25959	0.383819	0.548445	0.813522	0	0	-0.102872	-0.364238	0.414532	0.727539	1.29114	0	0
1.74	0.714841	1.50179	-2.29036	0.742145	0.34113	0.929566	0.0336941	0.00691977	-0.0193302	0.152441	0.107405	0	0	0.394361	-0.127169	-0.212389	1.32658	-0.0186988	0	0	-0.182152	-0.0738577	-0.0977979	-0.0887119	-0.262779	0.392745	0.5558	0.788602	0	0	-0.0994796	-0.366162	0.423205	0.733409	1.24418	0	0
1.75	0.772718	1.49869	-2.35371	0.741765	0.332424	0.930336	0.0209469	0.00176841	-0.0145047	0.145697	0.110269	0	0	0.410489	-0.122659	-0.219209	1.30553	-0.00273115	0	0	-0.182828	-0.0793756	-0.0923354	-0.0890825	-0.263515	0.392141	0.559196	0.785513	0	0	-0.0968485	-0.365433	0.419521	0.735766	1.24552	0	0
1.76	0.820917	1.4955	-2.40757	0.741355	0.323766	0.93099	0.00877973	-0.00306144	-0.00990044	0.140065	0.113233	0	0	0.424655	-0.118929	-0.228004	1.28011	0.0122652	0	0	-0.18382	-0.084723	-0.0866784	-0.0896001	-0.264271	0.391364	0.562967	0.782913	0	0	-0.0939199	-0.36477	0.416056	0.738345	1.24534	0	0
1.77	0.857748	1.49236	-2.44984	0.740981	0.315178	0.93155	-0.00263736	-0.00739514	-0.00583391	0.136083	0.116695	0	0	0.436734	-0.115679	-0.237856	1.25049	0.0278945	0	0	-0.185397	-0.0896059	-0.0814953	-0.0897654	-0.265138	0.391086	0.566566	0.781055	0	0	-0.0907913	-0.364074	0.412531	0.740899	1.24442	0	0
1.78	0.882745	1.48925	-2.47954	0.740667	0.306576	0.932045	-0.014283	-0.0113884	-0.00271607	0.133076	0.120843	0	0	0.446332	-0.112668	-0.248771	1.21634	0.0427519	0	0	-0.187612	-0.093997	-0.0774655	-0.0895004	-0.265962	0.390703	0.570013	0.778635	0	0	-0.0878948	-0.363353	0.408127	0.74354	1.24317	0	0
1.79	0.997095	1.48346	-2.59792	0.740364	0.29775	0.931347	-0.0293985	-0.0204637	0.00303188	0.115508	0.125226	0	0	0.459104	-0.102989	-0.264183	1.17809	0.0562158	0	0	-0.183478	-0.106104	-0.0751587	-0.0911346	-0.265627	0.390254	0.574225	0.776549	0	0	-0.0879037	-0.365589	0.404099	0.750241	1.24212	0	0
1.8	0.998187	1.47955	-2.60455	0.739881	0.288801	0.931673	-0.0445406	-0.0243403	0.00690068	0.110296	0.129062	0	0	0.460856	-0.109295	-0.293244	1.13569	0.0675835	0	0	-0.186807	-0.110825	-0.0707649	-0.0913328	-0.266055	0.389724	0.577289	0.773824	0	0	-0.0859485	-0.365359	0.399639	0.753572	1.2419	0	0
1.81	1.0223	1.47593	-2.63122	0.73968	0.280164	0.931767	-0.0568369	-0.0293083	0.00768217	0.106037	0.133378	0	0	0.464293	-0.104952	-0.309254	1.08652	0.0777198	0	0	-0.189063	-0.116377	-0.06966	-0.0903327	-0.265084	0.387963	0.578347	0.772069	0	0	-0.083092	-0.365682	0.395775	0.755873	1.24274	0	0
1.82	0.861392	1.47363	-2.47149	0.739857	0.271658	0.934336	-0.0796009	-0.0238912	0.000745903	0.111264	0.134433	0	0	0.448605	-0.109051	-0.320951	1.02777	0.084352	0	0	-0.208868	-0.108709	-0.0690242	-0.0849751	-0.265117	0.384258	0.575911	0.771062	0	0	-0.0744374	-0.360201	0.389831	0.749308	1.24625	0	0
1.83	0.884344	1.47099	-2.496	0.739873	0.263092	0.934164	-0.0920459	-0.028262	0.00127645	0.10649	0.138796	0	0	0.447844	-0.102498	-0.337007	0.968262	0.0915156	0	0	-0.21178	-0.113326	-0.0692282	-0.0829715	-0.263421	0.380921	0.575397	0.771078	0	0	-0.0710209	-0.360047	0.385864	0.750316	1.25066	0	0
1.84	0.90651	1.46744	-2.51973	0.739941	0.254509	0.933924	-0.104534	-0.0335734	0.000961022	0.102752	0.144444	0	0	0.443426	-0.0939372	-0.355012	0.901799	0.0960927	0	0	-0.215493	-0.118819	-0.0692471	-0.0804187	-0.25917	0.368767	0.570678	0.790603	0	0	-0.0668823	-0.361024	0.386971	0.752049	1.24136	0	0
1.85	0.934692	1.46705	-2.54786	0.740214	0.245966	0.933211	-0.113744	-0.0363753	-0.00137944	0.100584	0.150885	0	0	0.441258	-0.0861378	-0.371549	0.833263	0.100278	0	0	-0.216684	-0.121551	-0.0707989	-0.0773965	-0.25819	0.370869	0.568961	0.785048	0	0	-0.0633752	-0.360495	0.383476	0.751986	1.25004	0	0
1.86	0.958727	1.46631	-2.57157	0.740546	0.237249	0.93243	-0.123495	-0.0392134	-0.00388367	0.09908	0.158197	0	0	0.435762	-0.0766545	-0.389311	0.758963	0.102091	0	0	-0.218164	-0.124338	-0.0725899	-0.0741163	-0.256846	0.37307	0.565848	0.780278	0	0	-0.0598479	-0.360113	0.381335	0.751275	1.25684	0	0
1.87	0.982214	1.46612	-2.59456	0.74101	0.228401	0.931471	-0.132887	-0.0416127	-0.0056177	0.0980223	0.165929	0	0	0.428636	-0.0658611	-0.407048	0.680711	0.102143	0	0	-0.219084	-0.126421	-0.0742166	-0.0710935	-0.255718	0.374848	0.56243	0.77598	0	0	-0.0562089	-0.359374	0.380201	0.749828	1.26137	0	0
1.88	1.03193	1.46198	-2.64228	0.741849	0.220017	0.930776	-0.139777	-0.0496227	-0.00983542	0.0998947	0.174564	0	0	0.412023	-0.0340331	-0.396567	0.572837	0.0915055	0	0	-0.221207	-0.133312	-0.0782361	-0.0660005	-0.252935	0.375244	0.556073	0.772783	0	0	-0.050538	-0.358806	0.379702	0.746589	1.26297	0	0
1.89	1.0603	1.46317	-2.67023	0.742767	0.211122	0.929392	-0.144515	-0.0515364	-0.0128772	0.104236	0.18381	0	0	0.402035	-0.0201558	-0.40919	0.485401	0.0842106	0	0	-0.220746	-0.13352	-0.0791355	-0.0632885	-0.253048	0.375301	0.552546	0.769617	0	0	-0.0461691	-0.356631	0.38031	0.743175	1.26332	0	0
1.9	1.09683	1.46701	-2.70519	0.743932	0.202147	0.927591	-0.146278	-0.0509323	-0.0159106	0.110759	0.193583	0	0	0.395885	-0.00794987	-0.41923	0.403768	0.078942	0	0	-0.218013	-0.131028	-0.0802843	-0.0615753	-0.254236	0.375671	0.550387	0.765436	0	0	-0.0416543	-0.353973	0.382521	0.738694	1.26256	0	0
1.91	1.15865	1.47019	-2.76298	0.745427	0.193179	0.925479	-0.148342	-0.0516055	-0.0215848	0.11438	0.203892	0	0	0.388019	0.0119308	-0.409265	0.314594	0.0730203	0	0	-0.213344	-0.129692	-0.0839923	-0.0597793	-0.255975	0.381223	0.5489	0.752514	0	0	-0.0375133	-0.352337	0.387501	0.735091	1.25201	0	0
